<svg width="596" height="168" viewBox="0 0 596 168" fill="none" xmlns="http://www.w3.org/2000/svg">
<path d="M218.632 122.152C209.032 122.152 201.032 119.08 194.632 112.936C188.232 106.728 185.032 98.76 185.032 89.032C185.032 79.304 188.232 71.368 194.632 65.224C201.032 59.016 209.032 55.912 218.632 55.912C229.896 55.912 238.44 60.68 244.264 70.216L234.76 75.208C233.16 72.456 230.888 70.216 227.944 68.488C225.064 66.76 221.96 65.896 218.632 65.896C212.296 65.896 207.016 68.072 202.792 72.424C198.632 76.776 196.552 82.312 196.552 89.032C196.552 95.688 198.632 101.224 202.792 105.64C207.016 109.992 212.296 112.168 218.632 112.168C221.96 112.168 225.064 111.304 227.944 109.576C230.888 107.784 233.16 105.544 234.76 102.856L244.36 107.656C238.216 117.32 229.64 122.152 218.632 122.152ZM263.046 121H252.966V56.968H263.046V121ZM285.626 67.144C284.41 68.36 282.938 68.968 281.21 68.968C279.482 68.968 278.01 68.36 276.794 67.144C275.578 65.928 274.97 64.456 274.97 62.728C274.97 61 275.578 59.528 276.794 58.312C278.01 57.096 279.482 56.488 281.21 56.488C282.938 56.488 284.41 57.096 285.626 58.312C286.842 59.528 287.45 61 287.45 62.728C287.45 64.456 286.842 65.928 285.626 67.144ZM286.202 121H276.122V74.632H286.202V121ZM320.398 122.152C313.422 122.152 307.694 119.848 303.214 115.24C298.734 110.632 296.494 104.808 296.494 97.768C296.494 90.728 298.734 84.936 303.214 80.392C307.694 75.784 313.422 73.48 320.398 73.48C328.142 73.48 334.062 76.232 338.158 81.736L331.534 87.784C328.974 84.2 325.422 82.408 320.878 82.408C316.718 82.408 313.326 83.848 310.702 86.728C308.142 89.544 306.862 93.224 306.862 97.768C306.862 102.312 308.142 106.024 310.702 108.904C313.326 111.784 316.718 113.224 320.878 113.224C325.358 113.224 328.91 111.368 331.534 107.656L338.158 113.896C333.998 119.4 328.078 122.152 320.398 122.152ZM390.483 121H377.811L363.699 101.8L357.171 108.52V121H347.091V56.968H357.171V97L377.619 74.632H390.099L370.899 95.656L390.483 121ZM455.7 121H442.932L438.228 108.616H408.852L404.148 121H391.38L416.531 56.968H430.548L455.7 121ZM435.06 98.728L423.54 68.2L412.02 98.728H435.06ZM472.389 121H462.309V56.968H472.389V121ZM506.97 122.152C499.866 122.152 494.042 119.912 489.498 115.432C484.954 110.952 482.682 105.064 482.682 97.768C482.682 90.984 484.89 85.256 489.306 80.584C493.786 75.848 499.418 73.48 506.202 73.48C513.05 73.48 518.554 75.848 522.714 80.584C526.874 85.256 528.954 91.272 528.954 98.632V101.128H493.242C493.626 104.776 495.13 107.816 497.754 110.248C500.378 112.68 503.77 113.896 507.93 113.896C513.306 113.896 517.722 112.168 521.178 108.712L525.786 115.336C520.922 119.88 514.65 122.152 506.97 122.152ZM519.258 93.928C519.066 90.728 517.85 87.912 515.61 85.48C513.434 82.984 510.266 81.736 506.106 81.736C502.138 81.736 499.034 82.984 496.794 85.48C494.554 87.912 493.338 90.728 493.146 93.928H519.258ZM548.983 121H538.903V74.632H548.983V81.352C550.839 79.048 553.079 77.16 555.703 75.688C558.391 74.216 561.175 73.48 564.055 73.48V83.464C563.159 83.272 562.135 83.176 560.983 83.176C558.807 83.176 556.503 83.816 554.071 85.096C551.703 86.312 550.007 87.752 548.983 89.416V121ZM586.2 122.152C578.264 122.152 574.296 118.152 574.296 110.152V83.368H566.616V74.632H574.296V61.96H584.376V74.632H593.784V83.368H584.376V107.656C584.376 109.32 584.76 110.664 585.528 111.688C586.296 112.712 587.384 113.224 588.792 113.224C590.712 113.224 592.184 112.648 593.208 111.496L595.608 119.176C593.368 121.16 590.232 122.152 586.2 122.152Z" fill="#1E293B"/>
<rect x="0.198654" y="19.1986" width="148" height="148" rx="52" fill="#38BDF8"/>
<circle cx="124" cy="37" r="37" fill="#F87171"/>
</svg>
