<svg width="1918" height="476" viewBox="0 0 1918 476" fill="none" xmlns="http://www.w3.org/2000/svg">
<path d="M661.157 359.249V101.465C661.157 82.1623 670.808 72.511 690.111 72.511H797.988C828.81 72.511 853.405 81.851 871.774 100.531C890.454 119.211 899.794 142.405 899.794 170.114C899.794 197.823 890.454 221.017 871.774 239.697C853.405 258.377 828.81 267.717 797.988 267.717H715.796V359.249C715.796 366.721 713.15 373.259 707.857 378.863C702.564 384.156 696.182 386.802 688.71 386.802C680.927 386.802 674.389 384.156 669.096 378.863C663.803 373.259 661.157 366.721 661.157 359.249ZM790.516 120.612H715.796V219.616H790.516C806.394 219.616 819.159 215.102 828.81 206.073C838.773 197.044 843.754 185.058 843.754 170.114C843.754 155.17 838.773 143.184 828.81 134.155C819.159 125.126 806.394 120.612 790.516 120.612ZM1121.56 234.56V362.051C1121.56 368.9 1119.07 374.816 1114.08 379.797C1109.41 384.467 1103.66 386.802 1096.81 386.802C1090.27 386.802 1084.51 384.467 1079.53 379.797C1074.86 374.816 1072.52 368.9 1072.52 362.051V359.716C1055.09 379.641 1030.8 389.604 999.67 389.604C978.811 389.604 960.442 382.91 944.564 369.523C928.997 355.824 921.214 337.611 921.214 314.884C921.214 291.534 928.842 273.477 944.097 260.712C959.664 247.947 978.188 241.565 999.67 241.565C1031.43 241.565 1055.71 251.216 1072.52 270.519V236.895C1072.52 223.819 1067.7 213.545 1058.04 206.073C1048.39 198.601 1035.63 194.865 1019.75 194.865C1001.07 194.865 983.481 200.469 966.98 211.677C963.867 213.856 960.131 214.946 955.772 214.946C950.479 214.946 945.809 213.078 941.762 209.342C938.026 205.295 936.158 200.625 936.158 195.332C936.158 188.171 938.96 182.879 944.564 179.454C968.537 161.708 996.245 152.835 1027.69 152.835C1056.64 152.835 1079.53 159.684 1096.34 173.383C1113.15 186.77 1121.56 207.163 1121.56 234.56ZM1072.52 332.63V298.539C1061 282.972 1043.1 275.189 1018.82 275.189C1004.81 275.189 993.288 278.925 984.259 286.397C975.23 293.869 970.716 303.676 970.716 315.818C970.716 327.96 975.23 337.767 984.259 345.239C993.288 352.4 1004.81 355.98 1018.82 355.98C1043.1 355.98 1061 348.197 1072.52 332.63ZM1371.93 234.56V362.051C1371.93 368.9 1369.44 374.816 1364.46 379.797C1359.79 384.467 1354.03 386.802 1347.18 386.802C1340.64 386.802 1334.88 384.467 1329.9 379.797C1325.23 374.816 1322.9 368.9 1322.9 362.051V359.716C1305.46 379.641 1281.18 389.604 1250.04 389.604C1229.18 389.604 1210.82 382.91 1194.94 369.523C1179.37 355.824 1171.59 337.611 1171.59 314.884C1171.59 291.534 1179.22 273.477 1194.47 260.712C1210.04 247.947 1228.56 241.565 1250.04 241.565C1281.8 241.565 1306.08 251.216 1322.9 270.519V236.895C1322.9 223.819 1318.07 213.545 1308.42 206.073C1298.77 198.601 1286 194.865 1270.12 194.865C1251.45 194.865 1233.85 200.469 1217.35 211.677C1214.24 213.856 1210.5 214.946 1206.15 214.946C1200.85 214.946 1196.18 213.078 1192.14 209.342C1188.4 205.295 1186.53 200.625 1186.53 195.332C1186.53 188.171 1189.33 182.879 1194.94 179.454C1218.91 161.708 1246.62 152.835 1278.06 152.835C1307.02 152.835 1329.9 159.684 1346.71 173.383C1363.53 186.77 1371.93 207.163 1371.93 234.56ZM1322.9 332.63V298.539C1311.38 282.972 1293.48 275.189 1269.19 275.189C1255.18 275.189 1243.66 278.925 1234.63 286.397C1225.6 293.869 1221.09 303.676 1221.09 315.818C1221.09 327.96 1225.6 337.767 1234.63 345.239C1243.66 352.4 1255.18 355.98 1269.19 355.98C1293.48 355.98 1311.38 348.197 1322.9 332.63ZM1642.85 180.388V372.325C1642.85 409.374 1631.65 435.837 1609.23 451.715C1587.44 467.593 1560.04 475.532 1527.04 475.532C1494.35 475.532 1467.26 467.904 1445.78 452.649C1439.86 448.602 1436.91 442.998 1436.91 435.837C1436.91 430.233 1438.93 425.407 1442.98 421.36C1447.02 417.313 1451.85 415.289 1457.45 415.289C1461.81 415.289 1465.7 416.534 1469.13 419.025C1484.7 429.922 1504 435.37 1527.04 435.37C1546.96 435.37 1563 430.233 1575.14 419.959C1587.59 409.685 1593.82 394.43 1593.82 374.193V347.107C1573.89 372.014 1549.76 384.467 1521.43 384.467C1491.86 384.467 1467.73 374.193 1449.05 353.645C1430.68 332.786 1421.5 304.454 1421.5 268.651C1421.5 233.159 1430.68 204.983 1449.05 184.124C1467.73 163.265 1491.86 152.835 1521.43 152.835C1551.01 152.835 1575.14 165.133 1593.82 189.728V180.388C1593.82 173.539 1596.15 167.779 1600.82 163.109C1605.8 158.128 1611.72 155.637 1618.57 155.637C1625.11 155.637 1630.71 158.128 1635.38 163.109C1640.36 167.779 1642.85 173.539 1642.85 180.388ZM1593.82 310.681V226.621C1588.21 218.215 1579.81 211.054 1568.6 205.139C1557.7 199.224 1546.81 196.266 1535.91 196.266C1516.61 196.266 1501.2 202.96 1489.68 216.347C1478.16 229.423 1472.4 246.858 1472.4 268.651C1472.4 290.444 1478.16 308.035 1489.68 321.422C1501.2 334.498 1516.61 341.036 1535.91 341.036C1546.81 341.036 1557.7 338.078 1568.6 332.163C1579.81 326.248 1588.21 319.087 1593.82 310.681ZM1806.81 152.835C1839.19 152.835 1865.8 163.732 1886.66 185.525C1907.52 207.318 1917.95 233.626 1917.95 264.448C1917.95 279.703 1908.3 287.331 1889 287.331H1743.76C1745.63 305.388 1752.95 320.332 1765.71 332.163C1778.79 343.682 1795.44 349.442 1815.68 349.442C1833.43 349.442 1850.55 344.461 1867.05 334.498C1869.85 332.63 1873.43 331.696 1877.79 331.696C1883.08 331.696 1887.6 333.72 1891.33 337.767C1895.38 341.503 1897.4 346.017 1897.4 351.31C1897.4 358.159 1894.45 363.608 1888.53 367.655C1866.43 382.288 1840.43 389.604 1810.54 389.604C1776.61 389.604 1748.43 378.707 1726.02 356.914C1703.6 334.809 1692.39 306.167 1692.39 270.986C1692.39 237.985 1703.29 210.12 1725.08 187.393C1746.87 164.354 1774.12 152.835 1806.81 152.835ZM1743.29 252.773H1870.32C1869.7 236.895 1863.78 223.041 1852.57 211.21C1841.68 199.068 1826.42 192.997 1806.81 192.997C1788.13 192.997 1773.18 198.757 1761.97 210.276C1750.77 221.795 1744.54 235.961 1743.29 252.773Z" fill="#0F172A"/>
<path d="M406 267.422C406 203.803 406 115.451 406 63.9414C406 40.7454 387.196 22 364 22H64C40.804 22 22 40.804 22 64V364C22 387.196 40.804 406 64 406H371.973" stroke="#FBBF24" stroke-width="44" stroke-linecap="round"/>
<rect x="86" y="102" width="255" height="46" rx="23" fill="#FBBF24"/>
<rect x="86" y="280" width="205" height="46" rx="23" fill="#FBBF24"/>
<rect x="86" y="191" width="255" height="46" rx="23" fill="#FBBF24"/>
<rect x="414.114" y="405.87" width="109.239" height="38" rx="19" transform="rotate(135 414.114 405.87)" fill="#FBBF24"/>
<rect width="109.239" height="38" rx="17" transform="matrix(0.707107 0.707107 0.707107 -0.707107 310 355.87)" fill="#FBBF24"/>
</svg>
