<?xml version="1.0" standalone="no"?>
<!DOCTYPE svg PUBLIC "-//W3C//DTD SVG 20010904//EN"
 "http://www.w3.org/TR/2001/REC-SVG-20010904/DTD/svg10.dtd">
<svg version="1.0" xmlns="http://www.w3.org/2000/svg"
 width="672.000000pt" height="672.000000pt" viewBox="0 0 672.000000 672.000000"
 preserveAspectRatio="xMidYMid meet">
<metadata>
Created by potrace 1.14, written by Peter Selinger 2001-2017
</metadata>
<g transform="translate(0.000000,672.000000) scale(0.100000,-0.100000)"
fill="#000000" stroke="none">
<path d="M4959 6716 c-2 -2 -26 -6 -54 -10 -57 -6 -101 -14 -130 -23 -11 -4
-27 -7 -35 -8 -18 -2 -147 -42 -175 -54 -221 -95 -365 -191 -515 -342 -41 -41
-82 -84 -90 -95 -83 -108 -120 -162 -120 -174 0 -6 -3 -10 -8 -10 -4 0 -12
-10 -17 -22 l-10 -23 -805 -1 c-750 -2 -978 -6 -1040 -19 -14 -3 -44 -8 -68
-10 -35 -4 -215 -45 -257 -59 -5 -1 -23 -6 -40 -11 -16 -4 -34 -10 -40 -14 -5
-3 -12 -6 -15 -6 -26 -4 -120 -41 -120 -47 0 -4 -8 -8 -18 -8 -10 0 -26 -6
-37 -14 -11 -7 -23 -14 -28 -15 -53 -7 -355 -202 -467 -300 -126 -112 -235
-230 -329 -361 -22 -30 -44 -59 -49 -65 -4 -5 -19 -30 -32 -55 -14 -25 -28
-46 -32 -48 -5 -2 -8 -9 -8 -16 0 -6 -11 -28 -25 -49 -14 -20 -23 -37 -19 -37
4 0 0 -8 -9 -17 -8 -10 -16 -21 -17 -25 0 -4 -10 -29 -21 -55 -73 -167 -137
-381 -154 -512 -2 -19 -7 -50 -10 -70 -4 -20 -9 -72 -11 -116 -8 -121 -7
-2000 1 -2080 4 -38 8 -83 9 -100 2 -16 6 -43 9 -60 4 -16 9 -43 12 -60 3 -16
7 -41 10 -55 3 -14 8 -36 11 -50 9 -39 10 -42 24 -90 7 -25 14 -50 15 -55 6
-25 89 -229 111 -270 13 -25 24 -53 24 -61 0 -7 4 -14 9 -14 4 0 23 -29 41
-65 19 -36 44 -78 57 -93 13 -15 23 -32 23 -39 0 -6 3 -13 8 -15 4 -2 27 -30
52 -63 24 -33 56 -73 70 -90 36 -43 227 -235 233 -235 3 0 21 -14 39 -31 80
-74 308 -214 478 -292 46 -21 252 -93 298 -103 7 -2 16 -4 20 -5 16 -5 78 -20
97 -24 11 -3 36 -7 55 -10 19 -3 45 -7 57 -9 86 -18 265 -21 1188 -21 914 0
1133 4 1195 20 8 2 35 7 59 10 100 14 362 91 441 129 14 7 61 30 105 51 247
120 479 298 651 500 21 25 51 60 67 78 96 112 282 440 311 552 2 6 8 22 14 37
6 15 18 53 27 85 9 32 20 69 25 83 5 14 12 41 15 60 3 19 8 42 10 50 4 16 11
51 20 110 2 19 8 53 11 75 10 56 13 2119 4 2179 l-7 48 81 82 c115 116 208
237 261 342 11 21 25 46 32 54 6 8 12 18 12 23 0 4 8 21 16 37 9 17 13 30 9
30 -4 0 -2 6 4 13 17 21 60 160 83 269 33 155 33 436 -1 578 -6 25 -12 57 -14
71 -2 15 -7 32 -10 38 -4 6 -9 22 -12 35 -8 46 -84 221 -131 301 -94 162 -241
332 -378 435 -33 25 -62 47 -65 50 -28 28 -320 178 -320 164 0 -2 -12 2 -27
10 -29 14 -222 65 -277 72 -42 6 -353 14 -357 10z"/>
</g>
</svg>
